<svg width="20" height="20" viewBox="0 0 20 20" fill="none" xmlns="http://www.w3.org/2000/svg">
<path d="M8.74166 1.85833L4.58333 3.425C3.62499 3.78333 2.84166 4.91666 2.84166 5.93333V12.125C2.84166 13.1083 3.49166 14.4 4.28333 14.9917L7.86666 17.6667C9.04166 18.55 10.975 18.55 12.15 17.6667L15.7333 14.9917C16.525 14.4 17.175 13.1083 17.175 12.125V5.93333C17.175 4.90833 16.3917 3.775 15.4333 3.41666L11.275 1.85833C10.5667 1.6 9.43333 1.6 8.74166 1.85833Z" stroke="#0A0723" stroke-width="1.5" stroke-linecap="round" stroke-linejoin="round"/>
<path d="M10 10.4167C10.9205 10.4167 11.6667 9.67047 11.6667 8.74999C11.6667 7.82952 10.9205 7.08333 10 7.08333C9.07952 7.08333 8.33333 7.82952 8.33333 8.74999C8.33333 9.67047 9.07952 10.4167 10 10.4167Z" stroke="#0A0723" stroke-width="1.5" stroke-miterlimit="10" stroke-linecap="round" stroke-linejoin="round"/>
<path d="M10 10.4167V12.9167" stroke="#0A0723" stroke-width="1.5" stroke-miterlimit="10" stroke-linecap="round" stroke-linejoin="round"/>
</svg>
